<?xml version="1.0" encoding="UTF-8"?>
<svg width="343px" height="59px" viewBox="0 0 343 59" version="1.1" xmlns="http://www.w3.org/2000/svg" xmlns:xlink="http://www.w3.org/1999/xlink">
    <!-- Generator: Sketch 51.3 (57544) - http://www.bohemiancoding.com/sketch -->
    <title>logo</title>
    <desc>Created with Sketch.</desc>
    <defs>
        <polygon id="path-1" points="0.0009 0.4 31.5539 0.4 31.5539 59 0.0009 59"></polygon>
    </defs>
    <g id="Symbols" stroke="none" stroke-width="1" fill="none" fill-rule="evenodd">
        <g id="header" transform="translate(0.000000, -1.000000)">
            <g id="logo">
                <g>
                    <path d="M61.8433,42.359 L68.4703,42.359 C69.0383,42.359 69.6143,42.297 70.1983,42.17 C70.7813,42.045 71.3113,41.823 71.7843,41.507 C72.2583,41.192 72.6443,40.782 72.9443,40.276 C73.2433,39.772 73.3943,39.157 73.3943,38.43 C73.3943,37.641 73.1973,37.003 72.8023,36.512 C72.4073,36.024 71.9103,35.653 71.3113,35.4 C70.7113,35.148 70.0643,34.974 69.3693,34.88 C68.6753,34.785 68.0283,34.738 67.4293,34.738 L61.8433,34.738 L61.8433,42.359 Z M61.8433,28.489 L67.1933,28.489 C67.7603,28.489 68.3213,28.425 68.8723,28.299 C69.4243,28.173 69.9223,27.967 70.3643,27.684 C70.8063,27.4 71.1603,27.021 71.4293,26.547 C71.6973,26.074 71.8313,25.506 71.8313,24.843 C71.8313,24.15 71.6813,23.573 71.3823,23.116 C71.0813,22.658 70.6963,22.303 70.2223,22.05 C69.7483,21.798 69.2113,21.617 68.6133,21.505 C68.0133,21.396 67.4293,21.34 66.8613,21.34 L61.8433,21.34 L61.8433,28.489 Z M54.4573,15.091 L66.9553,15.091 C68.4063,15.091 69.8663,15.194 71.3343,15.399 C72.8023,15.604 74.1193,16.014 75.2873,16.63 C76.4543,17.245 77.4023,18.105 78.1283,19.21 C78.8543,20.315 79.2173,21.783 79.2173,23.613 C79.2173,25.506 78.6883,27.077 77.6313,28.323 C76.5723,29.57 75.1763,30.462 73.4413,30.998 L73.4413,31.092 C74.5453,31.251 75.5483,31.558 76.4473,32.015 C77.3473,32.473 78.1193,33.057 78.7673,33.767 C79.4133,34.477 79.9103,35.305 80.2583,36.253 C80.6053,37.199 80.7793,38.21 80.7793,39.282 C80.7793,41.05 80.4003,42.525 79.6433,43.709 C78.8853,44.892 77.9063,45.847 76.7073,46.573 C75.5083,47.299 74.1583,47.82 72.6603,48.134 C71.1603,48.451 69.6693,48.608 68.1873,48.608 L54.4573,48.608 L54.4573,15.091 Z" id="Fill-1" fill="#02796F"></path>
                    <path d="M92.52,28.9615 L96.875,28.9615 C97.538,28.9615 98.24,28.9385 98.982,28.8915 C99.723,28.8435 100.394,28.7015 100.994,28.4645 C101.593,28.2285 102.09,27.8575 102.485,27.3525 C102.879,26.8485 103.077,26.1385 103.077,25.2225 C103.077,24.3695 102.903,23.6915 102.556,23.1865 C102.208,22.6825 101.767,22.2955 101.23,22.0265 C100.693,21.7585 100.078,21.5765 99.384,21.4825 C98.69,21.3875 98.011,21.3405 97.348,21.3405 L92.52,21.3405 L92.52,28.9615 Z M85.134,15.0915 L98.106,15.0915 C99.81,15.0915 101.427,15.2565 102.958,15.5885 C104.489,15.9195 105.83,16.4725 106.982,17.2445 C108.134,18.0195 109.049,19.0605 109.728,20.3695 C110.406,21.6795 110.746,23.3135 110.746,25.2695 C110.746,27.6365 110.13,29.6485 108.9,31.3055 C107.668,32.9625 105.87,34.0125 103.502,34.4535 L112.024,48.6075 L103.171,48.6075 L96.165,35.2105 L92.52,35.2105 L92.52,48.6075 L85.134,48.6075 L85.134,15.0915 Z" id="Fill-3" fill="#02796F"></path>
                    <polygon id="Fill-5" fill="#02796F" points="116.0952 15.0914 138.8662 15.0914 138.8662 21.9074 123.4812 21.9074 123.4812 28.1564 138.0142 28.1564 138.0142 34.9744 123.4812 34.9744 123.4812 41.7914 139.7182 41.7914 139.7182 48.6084 116.0952 48.6084"></polygon>
                    <polygon id="Fill-7" fill="#02796F" points="142.1323 15.0914 150.1803 15.0914 155.5293 36.5834 155.6243 36.5834 162.6303 15.0914 169.4953 15.0914 176.4543 37.1524 176.5493 37.1524 182.1823 15.0914 189.6623 15.0914 179.8623 48.6084 173.2823 48.6084 165.8973 25.4114 165.8023 25.4114 158.4173 48.6084 152.0733 48.6084"></polygon>
                    <path d="M209.5454,23.2809 C208.9454,22.5239 208.1324,21.9639 207.1074,21.5999 C206.0814,21.2379 205.1104,21.0559 204.1954,21.0559 C203.6584,21.0559 203.1074,21.1199 202.5394,21.2459 C201.9714,21.3719 201.4344,21.5699 200.9294,21.8379 C200.4244,22.1059 200.0144,22.4609 199.6984,22.9019 C199.3834,23.3439 199.2254,23.8819 199.2254,24.5119 C199.2254,25.5219 199.6044,26.2959 200.3614,26.8319 C201.1184,27.3689 202.0724,27.8259 203.2264,28.2049 C204.3774,28.5839 205.6164,28.9619 206.9414,29.3409 C208.2674,29.7189 209.5054,30.2569 210.6574,30.9499 C211.8104,31.6449 212.7654,32.5759 213.5224,33.7439 C214.2794,34.9119 214.6584,36.4729 214.6584,38.4299 C214.6584,40.2929 214.3114,41.9179 213.6164,43.3059 C212.9224,44.6949 211.9834,45.8469 210.8004,46.7619 C209.6164,47.6769 208.2434,48.3559 206.6814,48.7979 C205.1194,49.2389 203.4694,49.4609 201.7334,49.4609 C199.5574,49.4609 197.5364,49.1289 195.6744,48.4669 C193.8124,47.8029 192.0764,46.7309 190.4674,45.2469 L195.7224,39.4709 C196.4804,40.4819 197.4344,41.2629 198.5864,41.8149 C199.7374,42.3679 200.9294,42.6429 202.1604,42.6429 C202.7594,42.6429 203.3674,42.5719 203.9834,42.4299 C204.5984,42.2889 205.1494,42.0749 205.6404,41.7919 C206.1284,41.5079 206.5234,41.1449 206.8234,40.7029 C207.1224,40.2599 207.2734,39.7399 207.2734,39.1399 C207.2734,38.1309 206.8864,37.3339 206.1134,36.7499 C205.3394,36.1659 204.3694,35.6689 203.2014,35.2589 C202.0334,34.8479 200.7714,34.4379 199.4144,34.0269 C198.0574,33.6179 196.7944,33.0649 195.6274,32.3709 C194.4594,31.6769 193.4884,30.7609 192.7164,29.6249 C191.9414,28.4889 191.5564,26.9899 191.5564,25.1279 C191.5564,23.3289 191.9114,21.7509 192.6214,20.3929 C193.3314,19.0369 194.2774,17.9009 195.4614,16.9849 C196.6454,16.0699 198.0104,15.3839 199.5574,14.9259 C201.1034,14.4679 202.6964,14.2389 204.3384,14.2389 C206.2324,14.2389 208.0624,14.5079 209.8294,15.0439 C211.5974,15.5809 213.1914,16.4799 214.6104,17.7429 L209.5454,23.2809 Z" id="Fill-9" fill="#02796F"></path>
                    <path d="M229.6255,45.7682 L236.7735,45.7682 C238.6045,45.7682 240.0795,45.5472 241.1995,45.1052 C242.3195,44.6642 243.1805,44.1112 243.7795,43.4482 C244.3795,42.7862 244.7815,42.0832 244.9865,41.3412 C245.1915,40.6002 245.2945,39.9292 245.2945,39.3302 C245.2945,38.0982 245.0585,37.0412 244.5845,36.1582 C244.1115,35.2752 243.4955,34.5562 242.7385,34.0032 C241.9805,33.4522 241.1205,33.0492 240.1585,32.7962 C239.1955,32.5442 238.2255,32.4172 237.2465,32.4172 L229.6255,32.4172 L229.6255,45.7682 Z M229.6255,29.5782 L236.1105,29.5782 C237.7205,29.5782 239.0295,29.3802 240.0405,28.9862 C241.0495,28.5912 241.8395,28.1102 242.4065,27.5412 C242.9755,26.9732 243.3545,26.3672 243.5435,25.7192 C243.7325,25.0732 243.8275,24.4812 243.8275,23.9442 C243.8275,22.7772 243.6295,21.8062 243.2355,21.0332 C242.8405,20.2592 242.3125,19.6442 241.6495,19.1862 C240.9865,18.7292 240.2135,18.4052 239.3295,18.2152 C238.4455,18.0262 237.5155,17.9312 236.5365,17.9312 L229.6255,17.9312 L229.6255,29.5782 Z M226.5005,15.0912 L236.1575,15.0912 C237.4205,15.0912 238.6985,15.1942 239.9925,15.3992 C241.2865,15.6042 242.4465,16.0312 243.4725,16.6772 C244.4975,17.3252 245.3345,18.2242 245.9805,19.3752 C246.6275,20.5282 246.9515,22.0502 246.9515,23.9442 C246.9515,25.6482 246.4465,27.1322 245.4375,28.3942 C244.4265,29.6572 242.9285,30.4932 240.9395,30.9032 L240.9395,30.9972 C242.0435,31.0922 243.0535,31.3532 243.9695,31.7792 C244.8845,32.2052 245.6735,32.7732 246.3365,33.4832 C246.9995,34.1932 247.5125,35.0382 247.8745,36.0152 C248.2375,36.9952 248.4195,38.0682 248.4195,39.2352 C248.4195,41.1612 248.0485,42.7312 247.3075,43.9452 C246.5645,45.1612 245.6335,46.1162 244.5145,46.8092 C243.3935,47.5032 242.1785,47.9772 240.8685,48.2292 C239.5585,48.4822 238.3355,48.6082 237.1995,48.6082 L226.5005,48.6082 L226.5005,15.0912 Z" id="Fill-11" fill="#02796F"></path>
                    <polygon id="Fill-13" fill="#02796F" points="263.7573 34.1695 251.4483 15.0915 255.1893 15.0915 265.3193 30.9975 275.6873 15.0915 279.1903 15.0915 266.8823 34.1695 266.8823 48.6075 263.7573 48.6075"></polygon>
                    <path d="M278.1011,46.6197 C278.1011,45.9887 278.3221,45.4527 278.7641,45.0107 C279.2051,44.5687 279.7421,44.3477 280.3731,44.3477 C281.0041,44.3477 281.5401,44.5687 281.9831,45.0107 C282.4241,45.4527 282.6461,45.9887 282.6461,46.6197 C282.6461,47.2517 282.4241,47.7877 281.9831,48.2287 C281.5401,48.6717 281.0041,48.8917 280.3731,48.8917 C279.7421,48.8917 279.2051,48.6717 278.7641,48.2287 C278.3221,47.7877 278.1011,47.2517 278.1011,46.6197" id="Fill-15" fill="#02796F"></path>
                    <path d="M314.9321,35.7789 C314.9321,37.5779 314.7261,39.2989 314.3171,40.9389 C313.9061,42.5809 313.2191,44.0329 312.2571,45.2949 C311.2941,46.5569 310.0331,47.5669 308.4701,48.3239 C306.9081,49.0819 304.9911,49.4609 302.7181,49.4609 C300.4461,49.4609 298.5291,49.0819 296.9661,48.3239 C295.4041,47.5669 294.1411,46.5569 293.1791,45.2949 C292.2161,44.0329 291.5301,42.5809 291.1201,40.9389 C290.7091,39.2989 290.5041,37.5779 290.5041,35.7789 L290.5041,15.0919 L293.6281,15.0919 L293.6281,34.9739 C293.6281,36.1749 293.7391,37.4519 293.9601,38.8089 C294.1811,40.1669 294.6151,41.4279 295.2621,42.5959 C295.9091,43.7639 296.8251,44.7259 298.0081,45.4839 C299.1911,46.2409 300.7611,46.6199 302.7181,46.6199 C304.6741,46.6199 306.2451,46.2409 307.4281,45.4839 C308.6121,44.7259 309.5271,43.7639 310.1741,42.5959 C310.8211,41.4279 311.2551,40.1669 311.4761,38.8089 C311.6971,37.4519 311.8081,36.1749 311.8081,34.9739 L311.8081,15.0919 L314.9321,15.0919 L314.9321,35.7789 Z" id="Fill-17" fill="#02796F"></path>
                    <path d="M324.3999,42.4068 C325.2199,43.8268 326.2859,44.8848 327.5949,45.5788 C328.9049,46.2728 330.3959,46.6198 332.0689,46.6198 C333.1109,46.6198 334.0879,46.4628 335.0039,46.1458 C335.9199,45.8318 336.7159,45.3888 337.3949,44.8208 C338.0739,44.2528 338.6099,43.5658 339.0039,42.7608 C339.3989,41.9568 339.5959,41.0508 339.5959,40.0398 C339.5959,38.8728 339.3519,37.9098 338.8629,37.1518 C338.3729,36.3938 337.7179,35.7718 336.8979,35.2818 C336.0769,34.7928 335.1539,34.3748 334.1289,34.0268 C333.1029,33.6798 332.0459,33.3338 330.9569,32.9858 C329.8679,32.6388 328.8099,32.2448 327.7849,31.8028 C326.7589,31.3608 325.8359,30.7848 325.0149,30.0748 C324.1949,29.3648 323.5399,28.4728 323.0509,27.3998 C322.5609,26.3268 322.3169,25.0018 322.3169,23.4238 C322.3169,21.9398 322.6089,20.6228 323.1929,19.4698 C323.7769,18.3188 324.5659,17.3558 325.5599,16.5828 C326.5539,15.8088 327.6979,15.2258 328.9929,14.8308 C330.2859,14.4358 331.6429,14.2388 333.0639,14.2388 C334.8929,14.2388 336.5899,14.5628 338.1529,15.2098 C339.7139,15.8568 341.0639,16.9368 342.1999,18.4528 L339.5019,20.3928 C338.7129,19.2888 337.7899,18.4608 336.7319,17.9078 C335.6739,17.3558 334.4209,17.0798 332.9689,17.0798 C331.9589,17.0798 330.9959,17.2148 330.0809,17.4818 C329.1659,17.7508 328.3689,18.1448 327.6899,18.6658 C327.0109,19.1858 326.4669,19.8418 326.0569,20.6308 C325.6469,21.4198 325.4419,22.3498 325.4419,23.4238 C325.4419,25.0958 325.8679,26.3818 326.7199,27.2818 C327.5719,28.1808 328.6369,28.8908 329.9159,29.4118 C331.1939,29.9318 332.5819,30.3898 334.0819,30.7848 C335.5799,31.1788 336.9689,31.7078 338.2479,32.3708 C339.5259,33.0328 340.5899,33.9568 341.4429,35.1398 C342.2949,36.3238 342.7209,37.9568 342.7209,40.0398 C342.7209,41.5538 342.4369,42.8958 341.8689,44.0628 C341.2999,45.2318 340.5349,46.2178 339.5729,47.0218 C338.6099,47.8268 337.4979,48.4348 336.2349,48.8448 C334.9719,49.2548 333.6629,49.4608 332.3059,49.4608 C330.0959,49.4608 328.0609,49.0738 326.1989,48.3008 C324.3369,47.5278 322.7439,46.2258 321.4179,44.3948 L324.3999,42.4068 Z" id="Fill-19" fill="#02796F"></path>
                    <g id="Group-23" transform="translate(0.000000, 0.599700)">
                        <mask id="mask-2" fill="white">
                            <use xlink:href="#path-1"></use>
                        </mask>
                        <g id="Clip-22"></g>
                        <path d="M15.7769,26.7476 C9.8529,26.7476 5.0499,21.9456 5.0499,16.0206 C5.0499,10.0976 9.8529,5.2946 15.7769,5.2946 C21.7019,5.2946 26.5049,10.0976 26.5049,16.0206 C26.5049,21.9456 21.7019,26.7476 15.7769,26.7476 Z M7.7839,48.0746 C7.7839,43.6606 11.3619,40.0816 15.7769,40.0816 C20.1919,40.0816 23.7709,43.6606 23.7709,48.0746 L7.7839,48.0746 Z M15.7769,0.3996 C7.0999,0.3996 0.0009,7.4996 0.0009,16.1776 L0.0009,43.2236 C0.0009,51.9006 7.0999,59.0006 15.7769,59.0006 C24.4549,59.0006 31.5539,51.9006 31.5539,43.2236 L31.5539,16.1776 C31.5539,7.4996 24.4549,0.3996 15.7769,0.3996 Z" id="Fill-21" fill="#02796F" mask="url(#mask-2)"></path>
                    </g>
                </g>
            </g>
        </g>
    </g>
</svg>